<svg width="238" height="238" viewBox="0 0 238 238" fill="none" xmlns="http://www.w3.org/2000/svg">
<path d="M37.6248 119.405C44.8214 123.576 55.332 127.047 66.402 127.047C82.8181 127.047 92.4095 118.884 92.4095 107.07C92.4095 96.1222 85.7693 89.8688 68.9813 83.7879C48.6889 77.0138 36.1463 67.11 36.1463 50.6047C36.1463 32.362 52.1964 18.8139 76.3593 18.8139C89.0894 18.8139 109.593 34.5397 115.127 37.4939L109.2 47.1151C105.142 45.0296 87.0574 31.3238 75.806 31.3238C58.8336 31.3238 52.3779 40.8795 52.3779 48.8703C52.3779 59.8153 59.9403 65.2001 77.0971 71.4535C98.1274 79.0993 108.826 88.655 108.826 105.853C108.826 123.921 94.6229 139.557 65.2923 139.557C53.3001 139.557 40.2042 136.255 33.564 132.087L37.6248 119.405Z" fill="#2474A6"/>
<path d="M187.342 134.405C181.74 137.204 170.539 140.006 156.188 140.006C122.933 140.006 97.9043 119.003 97.9043 80.325C97.9043 43.3963 122.933 18.3676 159.514 18.3676C174.216 18.3676 183.492 21.5182 187.514 23.6185L183.84 36.0451C178.066 33.2456 169.837 31.1453 160.037 31.1453C132.385 31.1453 114.008 48.8227 114.008 79.8014C114.008 108.68 130.635 127.232 159.338 127.232C168.614 127.232 178.066 125.307 184.191 122.332L187.342 134.405Z" fill="#54BFB5"/>
<path d="M205.126 219.632C221.733 201.19 231.092 93.1056 112.672 135.949C54.743 159.35 37.4939 200.824 8.04144 182.427C8.04144 182.427 11.1622 190.959 24.282 193.851C61.3505 198.254 65.572 159.719 144.157 147.379C144.157 147.379 216.595 136.963 205.126 219.632Z" fill="#2474A6"/>
<path d="M32.8737 214.515C8.03844 182.427 3.53133 90.1425 112.672 135.949C170.601 159.35 200.509 216.991 229.962 198.596C229.962 198.596 226.841 207.128 213.721 210.02C176.653 214.423 161.117 170.384 85.558 149.738C85.558 149.738 21.4051 131.846 32.8737 214.515Z" fill="#54BFB5"/>
</svg>
