<svg width="35" height="26" viewBox="0 0 35 26" fill="none" xmlns="http://www.w3.org/2000/svg">
<path d="M11 20.3399L4.06005 13.3999C3.68609 13.026 3.1789 12.8159 2.65005 12.8159C2.12119 12.8159 1.614 13.026 1.24005 13.3999C0.866092 13.7739 0.656006 14.2811 0.656006 14.8099C0.656006 15.0718 0.707584 15.3311 0.807794 15.573C0.908004 15.8149 1.05488 16.0347 1.24005 16.2199L9.60005 24.5799C10.38 25.3599 11.64 25.3599 12.42 24.5799L33.58 3.41991C33.954 3.04596 34.1641 2.53876 34.1641 2.00991C34.1641 1.48106 33.954 0.973866 33.58 0.599911C33.2061 0.225955 32.6989 0.0158691 32.17 0.0158691C31.6412 0.0158691 31.134 0.225955 30.76 0.599911L11 20.3399Z" fill="black"/>
</svg>
