<svg width="23" height="38" viewBox="0 0 23 38" fill="none" xmlns="http://www.w3.org/2000/svg">
<path d="M1.29999 37.2C0.799988 36.7 0.549988 36.108 0.549988 35.424C0.549988 34.74 0.799988 34.1487 1.29999 33.65L15.95 19L1.24999 4.3C0.783321 3.83333 0.549988 3.25 0.549988 2.55C0.549988 1.85 0.799988 1.25 1.29999 0.75C1.79999 0.25 2.39199 0 3.07599 0C3.75999 0 4.35132 0.25 4.84999 0.75L21.65 17.6C21.85 17.8 21.992 18.0167 22.076 18.25C22.16 18.4833 22.2013 18.7333 22.2 19C22.2 19.2667 22.158 19.5167 22.074 19.75C21.99 19.9833 21.8487 20.2 21.65 20.4L4.79999 37.25C4.33332 37.7167 3.75799 37.95 3.07399 37.95C2.38999 37.95 1.79865 37.7 1.29999 37.2Z" fill="white"/>
</svg>
