<svg width="25" height="15" viewBox="0 0 25 15" fill="none" xmlns="http://www.w3.org/2000/svg">
<path d="M24.2446 1.15543C23.9269 0.837779 23.5508 0.678955 23.1163 0.678955C22.6818 0.678955 22.3061 0.837779 21.9893 1.15543L12.6822 10.4625L3.3434 1.12366C3.04693 0.82719 2.67634 0.678955 2.23163 0.678955C1.78693 0.678955 1.40575 0.837779 1.0881 1.15543C0.770457 1.47307 0.611633 1.84917 0.611633 2.28371C0.611633 2.71825 0.770457 3.09392 1.0881 3.41072L11.7928 14.0837C11.9199 14.2107 12.0575 14.3009 12.2058 14.3543C12.354 14.4077 12.5128 14.4339 12.6822 14.4331C12.8516 14.4331 13.0105 14.4064 13.1587 14.353C13.3069 14.2997 13.4446 14.2099 13.5716 14.0837L24.2763 3.37895C24.5728 3.08248 24.721 2.71698 24.721 2.28244C24.721 1.8479 24.5622 1.47223 24.2446 1.15543Z" fill="black"/>
</svg>
