<svg width="41" height="37" viewBox="0 0 41 37" fill="none" xmlns="http://www.w3.org/2000/svg">
<path d="M27.163 9.3841C25.7537 9.3831 24.3529 9.60717 23.0118 10.0481C22.409 8.90086 21.5896 7.88601 20.6005 7.06184L22.768 3.91142C22.8245 3.82923 22.8646 3.73651 22.8859 3.63857C22.9072 3.54063 22.9093 3.43937 22.8922 3.34059C22.875 3.2418 22.8389 3.14742 22.7859 3.06284C22.7329 2.97825 22.6641 2.90512 22.5833 2.84761C22.5026 2.7901 22.4115 2.74934 22.3152 2.72766C22.219 2.70598 22.1195 2.70381 22.0224 2.72126C21.9254 2.73871 21.8326 2.77545 21.7495 2.82938C21.6664 2.88331 21.5945 2.95337 21.538 3.03556L19.3724 6.18598C17.8705 5.28216 16.1578 4.80506 14.413 4.80445C14.0924 4.80445 13.7755 4.82163 13.4643 4.85216L12.808 1.06441C12.7909 0.965676 12.7549 0.871342 12.7019 0.786791C12.649 0.70224 12.5802 0.629128 12.4995 0.57163C12.4188 0.514131 12.3278 0.473372 12.2316 0.451679C12.1354 0.429986 12.036 0.427785 11.939 0.445201C11.8419 0.462617 11.7492 0.499309 11.6662 0.553181C11.5831 0.607054 11.5112 0.677053 11.4547 0.759181C11.3982 0.841309 11.3582 0.933959 11.3369 1.03184C11.3156 1.12972 11.3134 1.23091 11.3305 1.32965L11.9868 5.11549C9.98469 5.64385 8.19859 6.80422 6.88489 8.43L3.78552 6.22033C3.62191 6.10418 3.41967 6.05893 3.22329 6.09454C3.0269 6.13015 2.85246 6.24369 2.73833 6.41019C2.6242 6.57669 2.57974 6.78251 2.61473 6.98237C2.64972 7.18223 2.76129 7.35977 2.92489 7.47591L6.02427 9.67796C5.13135 11.2052 4.66099 12.9499 4.66302 14.727C4.66302 15.0495 4.67989 15.3701 4.70989 15.6811L0.988017 16.349C0.803167 16.3819 0.637174 16.4842 0.522805 16.6356C0.408436 16.7871 0.354002 16.9766 0.370249 17.1669C0.386496 17.3572 0.472244 17.5343 0.610565 17.6634C0.748885 17.7925 0.929728 17.8641 1.11739 17.8641C1.16138 17.864 1.20528 17.8601 1.24864 17.8526L4.97052 17.1848C5.27807 18.4027 5.80998 19.5501 6.53802 20.5661C5.08763 21.7535 4.03471 23.3694 3.5243 25.1912C3.01388 27.013 3.07109 28.9511 3.68804 30.7384C4.30499 32.5257 5.45132 34.0744 6.96914 35.1711C8.48695 36.2678 10.3016 36.8585 12.163 36.862H27.163C30.7434 36.862 34.1772 35.4145 36.709 32.8379C39.2407 30.2614 40.663 26.7668 40.663 23.123C40.663 19.4792 39.2407 15.9847 36.709 13.4081C34.1772 10.8316 30.7434 9.3841 27.163 9.3841ZM6.16302 14.727C6.16284 12.8713 6.76679 11.0678 7.88046 9.59836C8.99414 8.12895 10.5548 7.07643 12.3185 6.60529C14.0822 6.13416 15.9496 6.27096 17.6288 6.99432C19.3081 7.71768 20.7045 8.98683 21.5999 10.6034C19.8959 11.3858 18.3695 12.5187 17.1168 13.9309C15.8641 15.343 14.9123 17.0038 14.3211 18.8086C13.6148 18.6323 12.8902 18.5433 12.163 18.5434C10.6265 18.5425 9.11551 18.944 7.77552 19.7093C6.72896 18.2664 6.16387 16.5204 6.16302 14.727ZM27.163 35.3354H12.163C11.1034 35.3346 10.0561 35.1053 9.0899 34.6626C8.12373 34.2199 7.26069 33.574 6.55764 32.7672C5.85459 31.9605 5.32749 31.0113 5.01105 29.9821C4.69462 28.953 4.59605 27.8674 4.72182 26.7967C4.8476 25.726 5.19487 24.6945 5.74075 23.7703C6.28664 22.8461 7.01875 22.0501 7.88886 21.4348C8.75896 20.8194 9.74731 20.3987 10.7888 20.2003C11.8303 20.0019 12.9012 20.0303 13.9311 20.2837C13.7919 20.9533 13.7023 21.6326 13.663 22.3159C13.6516 22.5183 13.7196 22.7171 13.8522 22.8684C13.9848 23.0198 14.171 23.1114 14.3699 23.123C14.5688 23.1347 14.7641 23.0654 14.9129 22.9305C15.0616 22.7956 15.1516 22.6061 15.163 22.4037C15.2085 21.5871 15.3341 20.7771 15.538 19.986C15.538 19.9631 15.5511 19.9402 15.5549 19.9173C16.1402 17.7169 17.3185 15.727 18.9566 14.1722C20.5946 12.6174 22.6273 11.5598 24.8249 11.1187C27.0225 10.6777 29.2975 10.8708 31.3929 11.6763C33.4884 12.4818 35.3207 13.8675 36.6831 15.677C38.0454 17.4865 38.8834 19.6476 39.1025 21.9162C39.3215 24.1849 38.9128 26.4707 37.9226 28.5154C36.9324 30.5601 35.4001 32.2823 33.4988 33.4875C31.5975 34.6926 29.4029 35.3327 27.163 35.3354Z" fill="white"/>
</svg>
