<svg width="25" height="25" viewBox="0 0 25 25" fill="none" xmlns="http://www.w3.org/2000/svg">
<path d="M22.3686 14.1415H14.1447V22.3654C14.1447 22.8016 13.9714 23.22 13.663 23.5285C13.3545 23.8369 12.9362 24.0102 12.4999 24.0102C12.0637 24.0102 11.6454 23.8369 11.3369 23.5285C11.0284 23.22 10.8552 22.8016 10.8552 22.3654V14.1415H2.63123C2.19501 14.1415 1.77665 13.9682 1.4682 13.6597C1.15974 13.3513 0.98645 12.9329 0.98645 12.4967C0.98645 12.0605 1.15974 11.6421 1.4682 11.3337C1.77665 11.0252 2.19501 10.8519 2.63123 10.8519H10.8552V2.62801C10.8552 2.19178 11.0284 1.77343 11.3369 1.46497C11.6454 1.15651 12.0637 0.983223 12.4999 0.983223C12.9362 0.983223 13.3545 1.15651 13.663 1.46497C13.9714 1.77343 14.1447 2.19178 14.1447 2.62801V10.8519H22.3686C22.8049 10.8519 23.2232 11.0252 23.5317 11.3337C23.8401 11.6421 24.0134 12.0605 24.0134 12.4967C24.0134 12.9329 23.8401 13.3513 23.5317 13.6597C23.2232 13.9682 22.8049 14.1415 22.3686 14.1415Z" fill="white"/>
</svg>
